{
.appVersion = "3091";
DisplayStrings = (
"nnnnqnnn\012ooooqooo\012nnnbqnnnn\012oooobooo\012nnnnvnnnnn\012bnbnbnbnn\012oooovooooo\012llll\012HPiIvTE\012/space HHHIHHH\012OOOIOOOI\012HHHEHHHH\012nlino/space bilililiililililililililliininininininininio/space \012Ilnobo\012Pilno\012Olno\012FrwL\012aBgN\012dcCfU\012nnmm\012VGp",
"HDODCOH/C.ss01/G.ss02/G.ss01 GOHFELT/space \012phoecrijasgagaotf\012nfniiiilllltllllliiiiinfnfnfnfnfnfnfnfnfnfnfnfnfnfnf\012",
"HDODCOFH/C.ss01/G.ss02/G.ss01 GOHFELT/space \012HDOHDHEHCHDHLHLHLHEHDHCHEHEHEHEHEHEHEHEHEHEHEHHTHHHHFHFHFHFHFHFHFHFHFH",
rijasgtf
);
copyright = "Copyright © 2021 by Anonimas team. All rights reserved.";
customParameters = (
{
name = openTypeGaspRangeRecords;
value = (
{
rangeGaspBehavior = (
0,
1,
2,
3
);
rangeMaxPPEM = 65535;
}
);
},
{
name = openTypeHeadFlags;
value = (
);
},
{
name = preferredFamilyName;
value = anonimassegundopartido;
},
{
name = openTypeOS2Selection;
value = (
);
},
{
name = fsType;
value = (
2
);
},
{
name = blueFuzz;
value = 1;
},
{
name = blueScale;
value = 0.04;
},
{
name = blueShift;
value = 7;
},
{
name = postscriptForceBold;
value = 0;
},
{
name = postscriptIsFixedPitch;
value = 0;
},
{
name = versionString;
value = "Version 1.000";
}
);
date = "2021-08-16 09:50:10 +0000";
designer = "Anonimas team";
disablesNiceNames = 1;
familyName = "Tans Sans 060921";
fontMaster = (
{
alignmentZones = (
"{778, 10}",
"{756, 10}",
"{0, -10}",
"{-210, -10}"
);
ascender = 778;
capHeight = 756;
customParameters = (
{
name = typoAscender;
value = 778;
},
{
name = typoDescender;
value = -210;
},
{
name = typoLineGap;
value = 112;
},
{
name = winAscent;
value = 845;
},
{
name = winDescent;
value = 210;
},
{
name = underlineThickness;
value = 120;
},
{
name = underlinePosition;
value = -110;
}
);
descender = -210;
guideLines = (
{
position = "{416, 127}";
},
{
position = "{413, 436}";
},
{
position = "{445, 629}";
},
{
position = "{28, -4}";
}
);
id = "6366B642-BFD9-498E-A5DF-39975F9AC1A1";
userData = {

glyphs = (
{
color = 9;
glyphname = B;
lastChange = "2021-09-06 19:17:19 +0000";
layers = (
{
guideLines = (
{
position = "{321, 419}";
}
);
layerId = "6366B642-BFD9-498E-A5DF-39975F9AC1A1";
paths = (
{
closed = 1;
nodes = (
"219 0 LINE",
"219 812 LINE",
"81 812 LINE",
"81 0 LINE"
);
},
{
closed = 1;
nodes = (
"544 455 LINE",
"634 458 OFFCURVE",
"661 516 OFFCURVE",
"661 613 CURVE SMOOTH",
"661 752 OFFCURVE",
"592 812 OFFCURVE",
"478 812 CURVE SMOOTH",
"170 812 LINE",
"170 680 LINE",
"523 680 LINE",
"523 583 LINE SMOOTH",
"523 503 OFFCURVE",
"498 466 OFFCURVE",
"370 466 CURVE SMOOTH",
"138 466 LINE",
"138 348 LINE",
"542 347 LINE",
"542 247 LINE SMOOTH",
"542 172 OFFCURVE",
"517 132 OFFCURVE",
"393 132 CURVE SMOOTH",
"160 132 LINE",
"160 0 LINE",
"418 0 LINE SMOOTH",
"614 0 OFFCURVE",
"680 82 OFFCURVE",
"680 245 CURVE SMOOTH",
"680 366 OFFCURVE",
"633 438 OFFCURVE",
"544 438 CURVE"
);
}
);
userData = {
com.schriftgestaltung.Glyphs.lastChange = "2021-09-01 09:32:31 +0000";
};
width = 733;
}
);
leftMetricsKey = H;
unicode = 0042;
},
{
color = 4;
glyphname = C;
lastChange = "2021-09-07 11:22:39 +0000";
layers = (
{
background = {
components = (
{
name = O;
transform = "{1, 0, 0, 1, -9, 0}";
}
);
paths = (
{
closed = 1;
nodes = (
"1279 1 OFFCURVE",
"1156 -11 OFFCURVE",
"1097 -11 CURVE SMOOTH",
"1057 -11 LINE SMOOTH",
"796 -11 OFFCURVE",
"766 123 OFFCURVE",
"766 358 CURVE",
"766 453 LINE",
"766 689 OFFCURVE",
"902 823 OFFCURVE",
"1119 823 CURVE SMOOTH",
"1275 823 OFFCURVE",
"1388 725 OFFCURVE",
"1388 580 CURVE",
"1244 580 LINE",
"1244 671 LINE",
"1031 671 LINE SMOOTH",
"945 671 OFFCURVE",
"912 613 OFFCURVE",
"912 542 CURVE SMOOTH",
"912 142 LINE",
"1335 142 LINE",
"1335 26 LINE"
);
}
);
};
layerId = "6366B642-BFD9-498E-A5DF-39975F9AC1A1";
paths = (
{
closed = 1;
nodes = (
"280 0 LINE SMOOTH",
"142 0 OFFCURVE",
"75 71 OFFCURVE",
"75 230 CURVE",
"75 528 LINE",
"75 663 OFFCURVE",
"168 756 OFFCURVE",
"280 756 CURVE SMOOTH",
"457 756 LINE SMOOTH",
"598 756 OFFCURVE",
"636 683 OFFCURVE",
"636 598 CURVE SMOOTH",
"636 470 LINE",
"509 470 LINE",
"509 629 LINE",
"328 629 LINE SMOOTH",
"251 629 OFFCURVE",
"211 607 OFFCURVE",
"211 507 CURVE SMOOTH",
"211 127 LINE",
"600 127 LINE",
"600 0 LINE"
);
}
);
userData = {
com.schriftgestaltung.Glyphs.lastChange = "2021-09-01 09:32:44 +0000";
};
width = 692;
}
);
leftMetricsKey = O;
unicode = 0043;
},
{
color = 5;
glyphname = D;
lastChange = "2021-09-07 11:22:21 +0000";
layers = (
{
background = {
paths = (
{
closed = 0;
nodes = (
"468 127 LINE",
"519 127 OFFCURVE",
"530 157 OFFCURVE",
"530 231 CURVE"
);
}
);
};
layerId = "6366B642-BFD9-498E-A5DF-39975F9AC1A1";
paths = (
{
closed = 1;
nodes = (
"478 0 LINE SMOOTH",
"614 0 OFFCURVE",
"676 73 OFFCURVE",
"676 231 CURVE SMOOTH",
"676 525 LINE SMOOTH",
"676 683 OFFCURVE",
"614 756 OFFCURVE",
"478 756 CURVE SMOOTH",
"83 756 LINE",
"83 0 LINE"
);
},
{
closed = 1;
nodes = (
"540 183 OFFCURVE",
"538 127 OFFCURVE",
"431 127 CURVE SMOOTH",
"213 127 LINE",
"213 629 LINE",
"540 629 LINE",
"540 236 LINE SMOOTH"
);
}
);
userData = {
com.schriftgestaltung.Glyphs.lastChange = "2021-09-01 09:44:06 +0000";
};
width = 751;
}
);
leftMetricsKey = H;
rightMetricsKey = O;
unicode = 0044;
},
{
color = 4;
glyphname = E;
lastChange = "2021-09-08 19:07:54 +0000";
layers = (
{
layerId = "6366B642-BFD9-498E-A5DF-39975F9AC1A1";
paths = (
{
closed = 1;
nodes = (
"213 756 LINE",
"83 756 LINE",
"83 0 LINE",
"213 0 LINE"
);
},
{
closed = 1;
nodes = (
"274 127 LINE SMOOTH",
"231 127 OFFCURVE",
"213 145 OFFCURVE",
"213 189 CURVE",
"213 0 LINE",
"593 0 LINE",
"593 127 LINE"
);
},
{
closed = 1;
nodes = (
"514 322 LINE",
"514 449 LINE",
"213 449 LINE",
"213 322 LINE"
);
},
{
closed = 1;
nodes = (
"592 629 LINE",
"592 756 LINE",
"213 756 LINE",
"213 629 LINE"
);
}
);
userData = {
com.schriftgestaltung.Glyphs.lastChange = "2021-09-01 09:41:20 +0000";
};
width = 649;
}
);
leftMetricsKey = H;
unicode = 0045;
},
{
color = 4;
glyphname = F;
lastChange = "2021-09-08 19:07:48 +0000";
layers = (
{
layerId = "6366B642-BFD9-498E-A5DF-39975F9AC1A1";
paths = (
{
closed = 1;
nodes = (
"83 756 LINE",
"83 0 LINE",
"213 0 LINE",
"213 756 LINE"
);
},
{
closed = 1;
nodes = (
"595 756 LINE",
"213 756 LINE",
"213 629 LINE",
"595 629 LINE"
);
},
{
closed = 1;
nodes = (
"213 269 LINE",
"520 269 LINE",
"520 396 LINE",
"274 396 LINE SMOOTH",
"234 396 OFFCURVE",
"213 415 OFFCURVE",
"213 449 CURVE"
);
}
);
userData = {
com.schriftgestaltung.Glyphs.lastChange = "2021-09-01 09:41:17 +0000";
};
width = 626;
}
);
leftMetricsKey = H;
unicode = 0046;
},
{
color = 9;
glyphname = G;
lastChange = "2021-09-07 11:23:22 +0000";
layers = (
{
background = {
components = (
{
name = O;
transform = "{1, 0, 0, 1, -63, 0}";
}
);
paths = (
{
closed = 1;
nodes = (
"859 131 OFFCURVE",
"934 -14 OFFCURVE",
"1177 -11 CURVE SMOOTH",
"1341 -9 OFFCURVE",
"1397 40 OFFCURVE",
"1407 123 CURVE",
"1494 123 LINE",
"1403 247 LINE",
"1403 177 OFFCURVE",
"1372 142 OFFCURVE",
"1263 142 CURVE",
"996 142 LINE",
"1009 129 LINE",
"1009 547 LINE",
"1009 638 OFFCURVE",
"1066 670 OFFCURVE",
"1162 671 CURVE",
"1412 671 LINE",
"1399 674 LINE",
"1399 581 LINE",
"1542 581 LINE",
"1542 726 OFFCURVE",
"1429 823 OFFCURVE",
"1235 823 CURVE",
"996 823 OFFCURVE",
"859 681 OFFCURVE",
"859 404 CURVE"
);
},
{
closed = 1;
nodes = (
"1547 448 LINE",
"1206 448 LINE",
"1206 335 LINE",
"1206 335 OFFCURVE",
"1403 335 OFFCURVE",
"1403 335 CURVE",
"1403 335 OFFCURVE",
"1403 177 OFFCURVE",
"1403 177 CURVE",
"1425 132 LINE",
"1425 0 LINE",
"1547 0 LINE"
);
}
);
};
layerId = "6366B642-BFD9-498E-A5DF-39975F9AC1A1";
paths = (
{
closed = 1;
nodes = (
"548 141 OFFCURVE",
"507 127 OFFCURVE",
"434 127 CURVE",
"211 127 LINE",
"211 507 LINE SMOOTH",
"211 607 OFFCURVE",
"251 629 OFFCURVE",
"328 629 CURVE SMOOTH",
"537 629 LINE",
"537 530 LINE",
"664 530 LINE",
"664 598 LINE SMOOTH",
"664 683 OFFCURVE",
"626 756 OFFCURVE",
"485 756 CURVE SMOOTH",
"280 756 LINE SMOOTH",
"168 756 OFFCURVE",
"75 663 OFFCURVE",
"75 528 CURVE",
"75 230 LINE",
"75 71 OFFCURVE",
"142 0 OFFCURVE",
"280 0 CURVE SMOOTH",
"380 0 LINE SMOOTH",
"490 0 OFFCURVE",
"545 39 OFFCURVE",
"556 124 CURVE",
"574 124 LINE",
"573 0 LINE",
"678 0 LINE",
"678 399 LINE",
"381 399 LINE",
"381 279 LINE",
"548 279 LINE",
"548 229 LINE"
);
}
);
userData = {
com.schriftgestaltung.Glyphs.lastChange = "2021-09-01 09:41:24 +0000";
};
width = 741;
}
);
leftMetricsKey = O;
unicode = 0047;
},
{
color = 9;
glyphname = H;
lastChange = "2021-09-08 18:48:32 +0000";
layers = (
{
background = {
paths = (
{
closed = 0;
nodes = (
"563 278 LINE",
"561 313 OFFCURVE",
"542 343 OFFCURVE",
"502 343 CURVE"
);
}
);
};
layerId = "6366B642-BFD9-498E-A5DF-39975F9AC1A1";
paths = (
{
closed = 1;
nodes = (
"213 330 LINE",
"502 330 LINE",
"542 330 OFFCURVE",
"563 310 OFFCURVE",
"563 277 CURVE",
"563 457 LINE",
"274 457 LINE",
"234 457 OFFCURVE",
"213 476 OFFCURVE",
"213 510 CURVE"
);
},
{
closed = 1;
nodes = (
"83 756 LINE",
"83 0 LINE",
"213 0 LINE",
"213 756 LINE"
);
},
{
closed = 1;
nodes = (
"563 756 LINE",
"563 0 LINE",
"693 0 LINE",
"693 756 LINE"
);
}
);
userData = {
com.schriftgestaltung.Glyphs.lastChange = "2021-09-01 09:04:36 +0000";
};
width = 776;
}
);
unicode = 0048;
},
{
color = 4;
glyphname = I;
lastChange = "2021-09-06 19:17:19 +0000";
layers = (
{
background = {
paths = (
{
closed = 0;
nodes = (
"287 606 LINE",
"285 641 OFFCURVE",
"266 671 OFFCURVE",
"226 671 CURVE"
);
}
);
};
layerId = "6366B642-BFD9-498E-A5DF-39975F9AC1A1";
paths = (
{
closed = 1;
nodes = (
"286 812 LINE",
"286 0 LINE",
"424 0 LINE",
"424 812 LINE"
);
},
{
closed = 1;
nodes = (
"225 680 LINE SMOOTH",
"269 680 OFFCURVE",
"286 660 OFFCURVE",
"286 618 CURVE",
"286 812 LINE",
"78 812 LINE",
"78 680 LINE"
);
},
{
closed = 1;
nodes = (
"632 680 LINE",
"632 812 LINE",
"424 812 LINE",
"424 680 LINE"
);
},
{
closed = 1;
nodes = (
"485 132 LINE SMOOTH",
"442 132 OFFCURVE",
"424 161 OFFCURVE",
"424 194 CURVE",
"424 0 LINE",
"632 0 LINE",
"632 132 LINE"
);
},
{
closed = 1;
nodes = (
"78 0 LINE",
"286 0 LINE",
"286 132 LINE",
"78 132 LINE"
);
}
);
userData = {
com.schriftgestaltung.Glyphs.lastChange = "2021-09-01 09:03:53 +0000";
};
width = 710;
}
);
unicode = 0049;
},
{
color = 9;
glyphname = L;
lastChange = "2021-09-08 19:07:59 +0000";
layers = (
{
layerId = "6366B642-BFD9-498E-A5DF-39975F9AC1A1";
paths = (
{
closed = 1;
nodes = (
"213 756 LINE",
"83 756 LINE",
"83 0 LINE",
"213 0 LINE"
);
},
{
closed = 1;
nodes = (
"274 127 LINE SMOOTH",
"239 127 OFFCURVE",
"213 153 OFFCURVE",
"213 189 CURVE",
"213 0 LINE",
"573 0 LINE",
"573 127 LINE"
);
}
);
userData = {
com.schriftgestaltung.Glyphs.lastChange = "2021-09-01 09:04:21 +0000";
};
width = 605;
}
);
leftMetricsKey = H;
unicode = 004C;
},
{
color = 9;
glyphname = N;
lastChange = "2021-09-06 19:17:19 +0000";
layers = (
{
layerId = "6366B642-BFD9-498E-A5DF-39975F9AC1A1";
paths = (
{
closed = 1;
nodes = (
"218 0 LINE",
"220 660 LINE",
"242 660 LINE",
"519 0 LINE",
"761 0 LINE",
"761 812 LINE",
"623 812 LINE",
"623 154 LINE",
"601 154 LINE",
"326 812 LINE",
"81 812 LINE",
"81 0 LINE"
);
}
);
userData = {
com.schriftgestaltung.Glyphs.lastChange = "2021-09-01 09:05:39 +0000";
};
width = 842;
}
);
leftMetricsKey = H;
rightMetricsKey = H;
unicode = 004E;
},
{
color = 9;
glyphname = O;
lastChange = "2021-09-07 11:23:08 +0000";
layers = (
{
background = {
components = (
{
name = D;
transform = "{1, 0, 0, 1, 55, 0}";
}
);
paths = (
{
closed = 1;
nodes = (
"1011 447 LINE SMOOTH",
"1011 566 OFFCURVE",
"1063 612 OFFCURVE",
"1197 612 CURVE SMOOTH",
"1456 612 LINE",
"1456 308 LINE",
"1456 189 OFFCURVE",
"1404 143 OFFCURVE",
"1270 143 CURVE",
"1011 143 LINE"
);
},
{
closed = 1;
nodes = (
"1519 40 OFFCURVE",
"1602 173 OFFCURVE",
"1602 377 CURVE SMOOTH",
"1602 587 OFFCURVE",
"1539 722 OFFCURVE",
"1342 756 CURVE",
"1141 756 LINE",
"965 722 OFFCURVE",
"864 587 OFFCURVE",
"864 377 CURVE SMOOTH",
"864 173 OFFCURVE",
"913 40 OFFCURVE",
"1102 2 CURVE",
"1348 2 LINE"
);
},
{
closed = 0;
nodes = (
"278 0 LINE SMOOTH",
"142 0 OFFCURVE",
"75 72 OFFCURVE",
"75 231 CURVE SMOOTH"
);
}
);
};
layerId = "6366B642-BFD9-498E-A5DF-39975F9AC1A1";
paths = (
{
closed = 1;
nodes = (
"211 508 LINE SMOOTH",
"211 607 OFFCURVE",
"253 629 OFFCURVE",
"327 629 CURVE SMOOTH",
"583 629 LINE",
"583 248 LINE SMOOTH",
"583 149 OFFCURVE",
"541 127 OFFCURVE",
"467 127 CURVE SMOOTH",
"211 127 LINE"
);
},
{
closed = 1;
nodes = (
"719 684 OFFCURVE",
"652 756 OFFCURVE",
"516 756 CURVE SMOOTH",
"279 756 LINE SMOOTH",
"170 756 OFFCURVE",
"75 663 OFFCURVE",
"75 526 CURVE SMOOTH",
"75 230 LINE SMOOTH",
"75 73 OFFCURVE",
"140 0 OFFCURVE",
"279 0 CURVE SMOOTH",
"515 0 LINE SMOOTH",
"634 0 OFFCURVE",
"719 83 OFFCURVE",
"719 230 CURVE SMOOTH",
"719 525 LINE SMOOTH"
);
}
);
userData = {
com.schriftgestaltung.Glyphs.lastChange = "2021-08-31 08:40:33 +0000";
};
width = 794;
}
);
unicode = 004F;
},
{
color = 9;
glyphname = P;
lastChange = "2021-09-06 19:17:19 +0000";
layers = (
{
background = {
components = (
{
name = G;
transform = "{1, 0, 0, 1, 0, 7}";
}
);
};
layerId = "6366B642-BFD9-498E-A5DF-39975F9AC1A1";
paths = (
{
closed = 1;
nodes = (
"219 680 LINE",
"519 680 LINE",
"519 543 LINE SMOOTH",
"519 440 OFFCURVE",
"501 400 OFFCURVE",
"370 400 CURVE SMOOTH",
"199 400 LINE",
"199 269 LINE",
"372 269 LINE SMOOTH",
"565 269 OFFCURVE",
"665 353 OFFCURVE",
"665 541 CURVE SMOOTH",
"665 717 OFFCURVE",
"622 812 OFFCURVE",
"437 812 CURVE SMOOTH",
"81 812 LINE",
"81 0 LINE",
"219 0 LINE"
);
}
);
userData = {
com.schriftgestaltung.Glyphs.lastChange = "2021-09-01 09:42:22 +0000";
};
width = 726;
}
);
leftMetricsKey = H;
unicode = 0050;
},
{
color = 5;
glyphname = Q;
lastChange = "2021-09-07 11:01:21 +0000";
layers = (
{
associatedMasterId = "6366B642-BFD9-498E-A5DF-39975F9AC1A1";
components = (
{
name = O;
}
);
layerId = "304C1C4F-D4C1-4C52-B021-26BBB90FCDF3";
name = "Sep 7 21, 12:57";
paths = (
{
closed = 1;
nodes = (
"214 -157 LINE",
"600 -157 LINE",
"600 -31 LINE",
"214 -31 LINE"
);
}
);
userData = {
com.schriftgestaltung.Glyphs.lastChange = "2021-09-01 08:44:25 +0000";
};
width = 813;
},
{
associatedMasterId = "6366B642-BFD9-498E-A5DF-39975F9AC1A1";
components = (
{
name = O;
}
);
layerId = "082C4040-C270-4171-8662-54DD6A7AAF85";
name = "Sep 7 21, 13:00";
paths = (
{
closed = 1;
nodes = (
"335 -108 LINE SMOOTH",
"335 -163 OFFCURVE",
"365 -193 OFFCURVE",
"420 -193 CURVE SMOOTH",
"672 -193 LINE",
"672 -71 LINE",
"464 -71 LINE",
"464 36 LINE",
"335 36 LINE"
);
}
);
userData = {
com.schriftgestaltung.Glyphs.lastChange = "2021-09-01 08:44:25 +0000";
};
width = 813;
},
{
components = (
{
name = O;
}
);
layerId = "6366B642-BFD9-498E-A5DF-39975F9AC1A1";
paths = (
{
closed = 1;
nodes = (
"456 94 LINE",
"545 -106 LINE",
"692 -106 LINE",
"591 94 LINE"
);
}
);
userData = {
com.schriftgestaltung.Glyphs.lastChange = "2021-09-01 08:44:25 +0000";
};
width = 813;
}
);
leftMetricsKey = O;
rightMetricsKey = O;
unicode = 0051;
},
{
color = 4;
glyphname = T;
lastChange = "2021-09-08 19:04:31 +0000";
layers = (
{
layerId = "6366B642-BFD9-498E-A5DF-39975F9AC1A1";
paths = (
{
closed = 1;
nodes = (
"262 0 LINE",
"392 0 LINE",
"392 756 LINE",
"262 756 LINE"
);
},
{
closed = 1;
nodes = (
"635 756 LINE",
"392 756 LINE",
"392 567 LINE",
"392 600 OFFCURVE",
"410 629 OFFCURVE",
"453 629 CURVE SMOOTH",
"635 629 LINE"
);
},
{
closed = 1;
nodes = (
"262 756 LINE",
"20 756 LINE",
"20 629 LINE",
"262 629 LINE"
);
}
);
userData = {
com.schriftgestaltung.Glyphs.lastChange = "2021-09-01 09:42:37 +0000";
};
width = 655;
}
);
unicode = 0054;
},
{
color = 4;
glyphname = U;
lastChange = "2021-09-06 19:17:19 +0000";
layers = (
{
background = {
paths = (
{
closed = 1;
nodes = (
"563 307 LINE SMOOTH",
"563 188 OFFCURVE",
"511 142 OFFCURVE",
"377 142 CURVE SMOOTH",
"230 142 LINE",
"230 812 LINE",
"83 812 LINE",
"83 811 OFFCURVE",
"83 406 OFFCURVE",
"83 406 CURVE SMOOTH",
"83 131 OFFCURVE",
"154 -11 OFFCURVE",
"408 -11 CURVE SMOOTH",
"590 -11 OFFCURVE",
"709 131 OFFCURVE",
"709 406 CURVE SMOOTH",
"709 406 OFFCURVE",
"709 811 OFFCURVE",
"709 812 CURVE",
"563 812 LINE"
);
}
);
};
layerId = "6366B642-BFD9-498E-A5DF-39975F9AC1A1";
paths = (
{
closed = 1;
nodes = (
"573 812 LINE",
"575 246 LINE SMOOTH",
"575 172 OFFCURVE",
"558 142 OFFCURVE",
"485 142 CURVE SMOOTH",
"219 142 LINE",
"219 812 LINE",
"87 812 LINE",
"87 288 LINE SMOOTH",
"87 78 OFFCURVE",
"166 -11 OFFCURVE",
"399 -11 CURVE SMOOTH",
"617 -11 OFFCURVE",
"707 95 OFFCURVE",
"707 281 CURVE SMOOTH",
"707 812 LINE"
);
}
);
userData = {
com.schriftgestaltung.Glyphs.lastChange = "2021-09-01 09:43:31 +0000";
};
width = 794;
}
);
unicode = 0055;
},
{
color = 4;
glyphname = V;
lastChange = "2021-09-06 19:17:19 +0000";
layers = (
{
layerId = "6366B642-BFD9-498E-A5DF-39975F9AC1A1";
paths = (
{
closed = 1;
nodes = (
"207 0 LINE",
"448 0 LINE",
"640 812 LINE",
"492 812 LINE",
"344 126 LINE",
"317 126 LINE",
"165 812 LINE",
"17 812 LINE"
);
}
);
userData = {
com.schriftgestaltung.Glyphs.lastChange = "2021-09-01 08:58:54 +0000";
};
width = 656;
}
);
unicode = 0056;
},
{
glyphname = B.ss01;
lastChange = "2021-09-06 19:17:19 +0000";
layers = (
{
layerId = "6366B642-BFD9-498E-A5DF-39975F9AC1A1";
paths = (
{
closed = 1;
nodes = (
"214 0 LINE",
"214 812 LINE",
"81 812 LINE",
"81 0 LINE"
);
},
{
closed = 1;
nodes = (
"534 457 LINE",
"632 462 OFFCURVE",
"644 521 OFFCURVE",
"644 617 CURVE SMOOTH",
"644 636 LINE SMOOTH",
"644 737 OFFCURVE",
"620 812 OFFCURVE",
"428 812 CURVE SMOOTH",
"165 812 LINE",
"165 677 LINE",
"506 677 LINE",
"506 583 LINE SMOOTH",
"506 503 OFFCURVE",
"482 466 OFFCURVE",
"354 466 CURVE SMOOTH",
"132 466 LINE",
"132 348 LINE",
"534 347 LINE",
"534 249 LINE SMOOTH",
"534 175 OFFCURVE",
"509 135 OFFCURVE",
"385 135 CURVE SMOOTH",
"155 135 LINE",
"155 0 LINE",
"402 0 LINE SMOOTH",
"597 0 OFFCURVE",
"672 61 OFFCURVE",
"672 224 CURVE",
"671 305 LINE SMOOTH",
"670 425 OFFCURVE",
"608 443 OFFCURVE",
"534 440 CURVE"
);
}
);
userData = {
com.schriftgestaltung.Glyphs.lastChange = "2021-09-01 09:44:06 +0000";
};
width = 711;
}
);
leftMetricsKey = H;
},
{
glyphname = C.ss01;
lastChange = "2021-09-07 11:25:16 +0000";
layers = (
{
layerId = "6366B642-BFD9-498E-A5DF-39975F9AC1A1";
paths = (
{
closed = 1;
nodes = (
"328 629 LINE SMOOTH",
"251 629 OFFCURVE",
"211 607 OFFCURVE",
"211 507 CURVE SMOOTH",
"211 127 LINE",
"570 127 LINE",
"570 0 LINE",
"280 0 LINE SMOOTH",
"142 0 OFFCURVE",
"75 71 OFFCURVE",
"75 230 CURVE",
"75 528 LINE",
"75 663 OFFCURVE",
"168 756 OFFCURVE",
"280 756 CURVE SMOOTH",
"570 756 LINE",
"570 629 LINE"
);
}
);
width = 605;
}
);
leftMetricsKey = O;
},
{
glyphname = G.ss01;
lastChange = "2021-09-07 11:27:08 +0000";
layers = (
{
layerId = "6366B642-BFD9-498E-A5DF-39975F9AC1A1";
paths = (
{
closed = 1;
nodes = (
"280 756 LINE SMOOTH",
"168 756 OFFCURVE",
"75 663 OFFCURVE",
"75 528 CURVE",
"75 230 LINE",
"75 71 OFFCURVE",
"142 0 OFFCURVE",
"280 0 CURVE SMOOTH",
"350 0 LINE SMOOTH",
"460 0 OFFCURVE",
"515 39 OFFCURVE",
"526 124 CURVE",
"544 124 LINE",
"543 0 LINE",
"648 0 LINE",
"648 429 LINE",
"374 429 LINE",
"374 309 LINE",
"518 309 LINE",
"518 229 LINE",
"518 141 OFFCURVE",
"477 127 OFFCURVE",
"404 127 CURVE",
"211 127 LINE",
"211 507 LINE SMOOTH",
"211 607 OFFCURVE",
"251 629 OFFCURVE",
"328 629 CURVE SMOOTH",
"596 629 LINE",
"596 756 LINE"
);
}
);
width = 703;
}
);
leftMetricsKey = O;
},
{
glyphname = Q.ss01;
lastChange = "2021-09-07 11:01:27 +0000";
layers = (
{
components = (
{
name = O;
}
);
layerId = "6366B642-BFD9-498E-A5DF-39975F9AC1A1";
paths = (
{
closed = 1;
nodes = (
"214 -157 LINE",
"600 -157 LINE",
"600 -31 LINE",
"214 -31 LINE"
);
}
);
width = 813;
}
);
leftMetricsKey = O;
rightMetricsKey = O;
},
{
glyphname = G.ss02;
lastChange = "2021-09-07 11:27:10 +0000";
layers = (
{
layerId = "6366B642-BFD9-498E-A5DF-39975F9AC1A1";
paths = (
{
closed = 1;
nodes = (
"280 756 LINE SMOOTH",
"168 756 OFFCURVE",
"75 663 OFFCURVE",
"75 528 CURVE",
"75 230 LINE",
"75 71 OFFCURVE",
"132 0 OFFCURVE",
"270 0 CURVE SMOOTH",
"320 0 LINE SMOOTH",
"430 0 OFFCURVE",
"485 39 OFFCURVE",
"496 124 CURVE",
"514 124 LINE",
"513 0 LINE",
"618 0 LINE",
"618 389 LINE",
"488 389 LINE",
"488 229 LINE",
"488 141 OFFCURVE",
"447 127 OFFCURVE",
"374 127 CURVE",
"211 127 LINE",
"211 507 LINE SMOOTH",
"211 607 OFFCURVE",
"251 629 OFFCURVE",
"328 629 CURVE SMOOTH",
"596 629 LINE",
"596 756 LINE"
);
}
);
width = 673;
}
);
leftMetricsKey = O;
rightMetricsKey = G.ss01;
},
{
glyphname = Q.ss02;
lastChange = "2021-09-07 11:01:32 +0000";
layers = (
{
components = (
{
name = O;
}
);
layerId = "6366B642-BFD9-498E-A5DF-39975F9AC1A1";
paths = (
{
closed = 1;
nodes = (
"335 -108 LINE SMOOTH",
"335 -163 OFFCURVE",
"365 -193 OFFCURVE",
"420 -193 CURVE SMOOTH",
"672 -193 LINE",
"672 -71 LINE",
"464 -71 LINE",
"464 36 LINE",
"335 36 LINE"
);
}
);
width = 813;
}
);
rightMetricsKey = O;
},
{
color = 9;
glyphname = a;
lastChange = "2021-09-08 20:26:56 +0000";
layers = (
{
background = {
paths = (
{
closed = 1;
nodes = (
"520 331 LINE",
"24 331 LINE",
"24 227 LINE",
"520 227 LINE"
);
},
{
closed = 1;
nodes = (
"74 433 LINE",
"411 433 LINE",
"411 221 LINE SMOOTH",
"411 149 OFFCURVE",
"378 113 OFFCURVE",
"303 113 CURVE SMOOTH",
"147 113 LINE",
"147 246 LINE",
"24 331 LINE",
"24 225 LINE SMOOTH",
"24 59 OFFCURVE",
"107 -4 OFFCURVE",
"241 -4 CURVE SMOOTH",
"304 -4 LINE SMOOTH",
"450 -4 OFFCURVE",
"540 100 OFFCURVE",
"540 248 CURVE SMOOTH",
"540 356 LINE SMOOTH",
"540 484 OFFCURVE",
"464 556 OFFCURVE",
"337 556 CURVE SMOOTH",
"74 556 LINE"
);
}
);
};
layerId = "6366B642-BFD9-498E-A5DF-39975F9AC1A1";
paths = (
{
closed = 1;
nodes = (
"539 284 LINE",
"539 327 LINE SMOOTH",
"539 493 OFFCURVE",
"479 556 OFFCURVE",
"323 556 CURVE SMOOTH",
"79 556 LINE",
"79 439 LINE",
"417 439 LINE",
"417 284 LINE"
);
},
{
closed = 1;
nodes = (
"539 0 LINE",
"539 284 LINE",
"417 284 LINE",
"418 195 LINE",
"434 125 LINE",
"435 0 LINE"
);
},
{
closed = 1;
nodes = (
"99 336 OFFCURVE",
"47 284 OFFCURVE",
"47 180 CURVE SMOOTH",
"47 163 LINE SMOOTH",
"47 51 OFFCURVE",
"102 -4 OFFCURVE",
"214 -4 CURVE SMOOTH",
"262 -4 LINE SMOOTH",
"350 -4 OFFCURVE",
"399 56 OFFCURVE",
"417 125 CURVE",
"500 125 LINE",
"418 212 LINE",
"418 122 OFFCURVE",
"356 107 OFFCURVE",
"271 107 CURVE SMOOTH",
"168 107 LINE",
"167 229 LINE",
"440 229 LINE",
"440 336 LINE",
"203 336 LINE SMOOTH"
);
}
);
userData = {
com.schriftgestaltung.Glyphs.lastChange = "2021-08-31 08:38:01 +0000";
};
width = 616;
}
);
rightMetricsKey = n;
unicode = 0061;
},
{
color = 9;
glyphname = b;
lastChange = "2021-09-06 19:17:19 +0000";
layers = (
{
background = {
components = (
{
name = o;
transform = "{1, 0, 0, 1, 29, 0}";
}
);
};
layerId = "6366B642-BFD9-498E-A5DF-39975F9AC1A1";
paths = (
{
closed = 1;
nodes = (
"82 0 LINE",
"187 0 LINE",
"198 99 LINE",
"208 117 LINE",
"208 354 LINE",
"201 447 LINE",
"201 868 LINE",
"82 868 LINE"
);
},
{
closed = 1;
nodes = (
"155 67 LINE",
"182 67 LINE",
"210 23 OFFCURVE",
"287 -11 OFFCURVE",
"358 -11 CURVE SMOOTH",
"557 -11 OFFCURVE",
"635 120 OFFCURVE",
"635 278 CURVE",
"635 330 LINE",
"635 475 OFFCURVE",
"558 567 OFFCURVE",
"432 567 CURVE",
"393 567 LINE",
"303 567 OFFCURVE",
"240 513 OFFCURVE",
"218 447 CURVE",
"201 447 LINE",
"208 354 LINE",
"208 410 OFFCURVE",
"268 436 OFFCURVE",
"324 436 CURVE SMOOTH",
"506 436 LINE",
"506 245 LINE SMOOTH",
"506 150 OFFCURVE",
"451 119 OFFCURVE",
"383 119 CURVE SMOOTH",
"171 119 LINE"
);
}
);
userData = {
com.schriftgestaltung.Glyphs.lastChange = "2021-08-31 08:38:01 +0000";
};
width = 686;
}
);
leftMetricsKey = l;
rightMetricsKey = o;
unicode = 0062;
},
{
color = 9;
glyphname = c;
lastChange = "2021-09-08 19:17:42 +0000";
layers = (
{
layerId = "6366B642-BFD9-498E-A5DF-39975F9AC1A1";
paths = (
{
closed = 1;
nodes = (
"127 -3 OFFCURVE",
"51 66 OFFCURVE",
"51 196 CURVE SMOOTH",
"51 303 LINE SMOOTH",
"51 452 OFFCURVE",
"141 556 OFFCURVE",
"283 556 CURVE SMOOTH",
"368 556 LINE SMOOTH",
"498 556 OFFCURVE",
"548 472 OFFCURVE",
"548 368 CURVE SMOOTH",
"548 317 LINE",
"418 317 LINE",
"418 432 LINE",
"287 432 LINE SMOOTH",
"213 432 OFFCURVE",
"180 402 OFFCURVE",
"180 330 CURVE SMOOTH",
"180 119 LINE",
"501 119 LINE",
"501 -3 LINE",
"254 -3 LINE SMOOTH"
);
},
{
closed = 1;
nodes = (
"127 -3 OFFCURVE",
"51 66 OFFCURVE",
"51 196 CURVE SMOOTH",
"51 303 LINE SMOOTH",
"51 452 OFFCURVE",
"141 556 OFFCURVE",
"283 556 CURVE SMOOTH",
"368 556 LINE SMOOTH",
"498 556 OFFCURVE",
"548 472 OFFCURVE",
"548 368 CURVE SMOOTH",
"548 317 LINE",
"418 317 LINE",
"418 432 LINE",
"287 432 LINE SMOOTH",
"213 432 OFFCURVE",
"180 402 OFFCURVE",
"180 330 CURVE SMOOTH",
"180 119 LINE",
"501 119 LINE",
"501 -3 LINE",
"254 -3 LINE SMOOTH"
);
}
);
userData = {
com.schriftgestaltung.Glyphs.lastChange = "2021-08-31 08:38:01 +0000";
};
width = 596;
}
);
leftMetricsKey = o;
unicode = 0063;
},
{
color = 9;
glyphname = d;
lastChange = "2021-09-07 10:15:12 +0000";
layers = (
{
layerId = "6366B642-BFD9-498E-A5DF-39975F9AC1A1";
paths = (
{
closed = 1;
nodes = (
"456 868 LINE",
"456 172 LINE",
"461 125 LINE",
"461 0 LINE",
"585 0 LINE",
"585 868 LINE"
);
},
{
closed = 1;
nodes = (
"179 410 OFFCURVE",
"239 436 OFFCURVE",
"295 436 CURVE",
"456 436 LINE",
"456 349 LINE",
"529 556 LINE",
"300 556 LINE",
"127 556 OFFCURVE",
"51 434 OFFCURVE",
"51 297 CURVE",
"51 228 LINE",
"51 86 OFFCURVE",
"128 -4 OFFCURVE",
"236 -4 CURVE",
"266 -4 LINE",
"368 4 OFFCURVE",
"423 42 OFFCURVE",
"443 110 CURVE",
"525 110 LINE",
"456 221 LINE",
"456 131 OFFCURVE",
"385 118 OFFCURVE",
"299 119 CURVE",
"179 119 LINE",
"179 354 LINE SMOOTH"
);
}
);
userData = {
com.schriftgestaltung.Glyphs.lastChange = "2021-08-31 08:38:01 +0000";
};
width = 667;
}
);
leftMetricsKey = o;
unicode = 0064;
},
{
color = 9;
glyphname = e;
lastChange = "2021-09-07 10:41:11 +0000";
layers = (
{
anchors = (
{
name = bottom;
position = "{318, 0}";
},
{
name = ogonek;
position = "{478, 10}";
},
{
name = top;
position = "{318, 556}";
}
);
background = {
components = (
{
name = c;
}
);
};
guideLines = (
{
angle = 180;
position = "{292, 294}";
}
);
layerId = "6366B642-BFD9-498E-A5DF-39975F9AC1A1";
paths = (
{
closed = 1;
nodes = (
"71 221 LINE",
"567 221 LINE",
"567 325 LINE",
"71 325 LINE"
);
},
{
closed = 1;
nodes = (
"517 119 LINE",
"180 119 LINE",
"180 331 LINE SMOOTH",
"180 403 OFFCURVE",
"213 439 OFFCURVE",
"288 439 CURVE SMOOTH",
"444 439 LINE",
"444 306 LINE",
"567 221 LINE",
"567 327 LINE SMOOTH",
"567 493 OFFCURVE",
"484 556 OFFCURVE",
"350 556 CURVE SMOOTH",
"287 556 LINE SMOOTH",
"141 556 OFFCURVE",
"51 452 OFFCURVE",
"51 304 CURVE SMOOTH",
"51 196 LINE SMOOTH",
"51 68 OFFCURVE",
"127 -4 OFFCURVE",
"254 -4 CURVE SMOOTH",
"517 -4 LINE"
);
}
);
userData = {
com.schriftgestaltung.Glyphs.lastChange = "2021-08-31 08:58:03 +0000";
};
width = 619;
},
{
associatedMasterId = "6366B642-BFD9-498E-A5DF-39975F9AC1A1";
background = {
components = (
{
name = o;
transform = "{1, 0, 0, 1, -6, 0}";
}
);
};
guideLines = (
{
angle = 180;
position = "{288, 294}";
}
);
layerId = "387055BB-E050-41FE-BED5-525A4631D865";
name = "Sep 7 21, 12:26";
paths = (
{
closed = 1;
nodes = (
"67 221 LINE",
"572 221 LINE",
"573 327 LINE",
"67 327 LINE"
);
},
{
closed = 1;
nodes = (
"529 119 LINE",
"176 119 LINE",
"176 338 LINE SMOOTH",
"176 406 OFFCURVE",
"229 437 OFFCURVE",
"284 437 CURVE SMOOTH",
"462 437 LINE",
"462 306 LINE",
"572 221 LINE",
"574 232 OFFCURVE",
"576 263 OFFCURVE",
"577 279 CURVE SMOOTH",
"587 461 OFFCURVE",
"514 567 OFFCURVE",
"327 567 CURVE SMOOTH",
"164 567 OFFCURVE",
"51 461 OFFCURVE",
"51 279 CURVE SMOOTH",
"51 49 OFFCURVE",
"155 -11 OFFCURVE",
"327 -11 CURVE SMOOTH",
"408 -11 OFFCURVE",
"481 2 OFFCURVE",
"529 33 CURVE"
);
}
);
userData = {
com.schriftgestaltung.Glyphs.lastChange = "2021-08-31 08:58:03 +0000";
};
width = 627;
}
);
leftMetricsKey = o;
unicode = 0065;
},
{
color = 9;
glyphname = f;
lastChange = "2021-09-08 20:23:58 +0000";
layers = (
{
background = {
paths = (
{
closed = 1;
nodes = (
"239 0 LINE",
"239 569 LINE SMOOTH",
"239 624 OFFCURVE",
"269 654 OFFCURVE",
"324 654 CURVE SMOOTH",
"405 654 LINE",
"405 778 LINE",
"317 778 LINE SMOOTH",
"170 778 OFFCURVE",
"113 719 OFFCURVE",
"113 565 CURVE SMOOTH",
"113 0 LINE"
);
}
);
};
layerId = "6366B642-BFD9-498E-A5DF-39975F9AC1A1";
paths = (
{
closed = 1;
nodes = (
"239 0 LINE",
"239 654 LINE",
"405 654 LINE",
"405 778 LINE",
"317 778 LINE SMOOTH",
"170 778 OFFCURVE",
"113 729 OFFCURVE",
"113 575 CURVE SMOOTH",
"113 0 LINE"
);
},
{
closed = 1;
nodes = (
"32 451 LINE",
"377 451 LINE",
"377 556 LINE",
"32 556 LINE"
);
}
);
userData = {
com.schriftgestaltung.Glyphs.lastChange = "2021-08-31 08:38:01 +0000";
};
width = 402;
}
);
unicode = 0066;
},
{
color = 9;
glyphname = g;
lastChange = "2021-09-08 20:22:24 +0000";
layers = (
{
background = {
paths = (
{
closed = 1;
nodes = (
"455 786 LINE",
"454 440 LINE",
"438 370 LINE",
"438 8 LINE",
"564 8 LINE",
"564 786 LINE"
);
},
{
closed = 1;
nodes = (
"183 440 LINE",
"286 440 LINE SMOOTH",
"370 440 OFFCURVE",
"438 427 OFFCURVE",
"438 337 CURVE",
"519 440 LINE",
"437 440 LINE",
"437 515 OFFCURVE",
"381 567 OFFCURVE",
"280 567 CURVE SMOOTH",
"238 567 LINE SMOOTH",
"117 567 OFFCURVE",
"59 506 OFFCURVE",
"59 388 CURVE SMOOTH",
"59 8 LINE",
"182 8 LINE",
"182 329 LINE"
);
}
);
};
layerId = "6366B642-BFD9-498E-A5DF-39975F9AC1A1";
paths = (
{
closed = 1;
nodes = (
"336 174 LINE SMOOTH",
"501 174 OFFCURVE",
"564 232 OFFCURVE",
"564 382 CURVE SMOOTH",
"564 629 LINE",
"454 629 LINE",
"454 399 LINE",
"479 487 LINE",
"437 487 LINE",
"437 545 OFFCURVE",
"394 567 OFFCURVE",
"323 567 CURVE SMOOTH",
"235 567 LINE SMOOTH",
"105 567 OFFCURVE",
"55 517 OFFCURVE",
"55 388 CURVE SMOOTH",
"55 365 LINE SMOOTH",
"55 241 OFFCURVE",
"121 194 OFFCURVE",
"293 194 CURVE",
"293 174 LINE"
);
},
{
closed = 1;
nodes = (
"566 -33 LINE",
"566 83 LINE",
"180 84 LINE",
"180 152 OFFCURVE",
"203 174 OFFCURVE",
"270 174 CURVE SMOOTH",
"293 174 LINE",
"293 224 LINE",
"187 224 LINE",
"187 186 LINE",
"96 186 OFFCURVE",
"51 151 OFFCURVE",
"51 81 CURVE SMOOTH",
"51 63 LINE SMOOTH",
"51 -7 OFFCURVE",
"96 -33 OFFCURVE",
"187 -33 CURVE SMOOTH"
);
},
{
closed = 1;
nodes = (
"180 400 LINE SMOOTH",
"180 433 OFFCURVE",
"198 451 OFFCURVE",
"230 451 CURVE SMOOTH",
"432 451 LINE",
"432 342 LINE SMOOTH",
"432 309 OFFCURVE",
"415 291 OFFCURVE",
"382 291 CURVE SMOOTH",
"180 291 LINE"
);
}
);
userData = {
com.schriftgestaltung.Glyphs.lastChange = "2021-09-01 09:51:11 +0000";
};
width = 632;
}
);
leftMetricsKey = o;
unicode = 0067;
},
{
color = 9;
glyphname = h;
lastChange = "2021-09-06 21:11:53 +0000";
layers = (
{
background = {
components = (
{
name = p;
transform = "{1, 0, 0, 1, -15, 0}";
}
);
};
layerId = "6366B642-BFD9-498E-A5DF-39975F9AC1A1";
paths = (
{
closed = 1;
nodes = (
"82 0 LINE",
"208 0 LINE",
"208 362 LINE",
"192 432 LINE",
"191 778 LINE",
"82 778 LINE"
);
},
{
closed = 1;
nodes = (
"464 0 LINE",
"587 0 LINE",
"587 380 LINE SMOOTH",
"587 498 OFFCURVE",
"529 559 OFFCURVE",
"408 559 CURVE SMOOTH",
"366 559 LINE SMOOTH",
"265 559 OFFCURVE",
"229 507 OFFCURVE",
"209 432 CURVE",
"127 432 LINE",
"208 329 LINE",
"208 419 OFFCURVE",
"276 432 OFFCURVE",
"360 432 CURVE SMOOTH",
"463 432 LINE",
"464 321 LINE"
);
}
);
userData = {
com.schriftgestaltung.Glyphs.lastChange = "2021-08-31 08:38:01 +0000";
};
width = 664;
}
);
leftMetricsKey = l;
rightMetricsKey = n;
unicode = 0068;
},
{
color = 9;
glyphname = i;
lastChange = "2021-09-08 20:05:54 +0000";
layers = (
{
background = {
paths = (
{
closed = 1;
nodes = (
"83 0 LINE",
"209 0 LINE",
"209 556 LINE",
"83 556 LINE"
);
},
{
closed = 1;
nodes = (
"201 651 OFFCURVE",
"235 675 OFFCURVE",
"235 732 CURVE SMOOTH",
"235 794 OFFCURVE",
"201 821 OFFCURVE",
"150 821 CURVE SMOOTH",
"99 821 OFFCURVE",
"66 794 OFFCURVE",
"66 732 CURVE SMOOTH",
"66 675 OFFCURVE",
"99 651 OFFCURVE",
"150 651 CURVE SMOOTH"
);
}
);
};
layerId = "6366B642-BFD9-498E-A5DF-39975F9AC1A1";
paths = (
{
closed = 1;
nodes = (
"83 0 LINE",
"209 0 LINE",
"209 556 LINE",
"83 556 LINE"
);
},
{
closed = 1;
nodes = (
"83 652 LINE",
"209 652 LINE",
"209 778 LINE",
"83 778 LINE"
);
}
);
userData = {
com.schriftgestaltung.Glyphs.lastChange = "2021-08-31 11:47:58 +0000";
};
width = 292;
}
);
leftMetricsKey = n;
rightMetricsKey = "|i";
unicode = 0069;
},
{
color = 9;
glyphname = l;
lastChange = "2021-09-08 20:11:22 +0000";
layers = (
{
layerId = "6366B642-BFD9-498E-A5DF-39975F9AC1A1";
paths = (
{
closed = 1;
nodes = (
"83 778 LINE",
"83 0 LINE",
"206 0 LINE",
"206 778 LINE"
);
}
);
userData = {
com.schriftgestaltung.Glyphs.lastChange = "2021-08-31 11:48:13 +0000";
};
width = 289;
}
);
unicode = 006C;
},
{
color = 9;
glyphname = m;
lastChange = "2021-09-06 19:17:19 +0000";
layers = (
{
background = {
components = (
{
name = n;
transform = "{1, 0, 0, 1, 1, 0}";
}
);
};
layerId = "6366B642-BFD9-498E-A5DF-39975F9AC1A1";
paths = (
{
closed = 1;
nodes = (
"83 0 LINE",
"209 0 LINE",
"209 362 LINE",
"194 432 LINE",
"192 556 LINE",
"83 556 LINE"
);
},
{
closed = 1;
nodes = (
"443 3 LINE",
"566 3 LINE",
"566 321 LINE",
"566 468 OFFCURVE",
"507 564 OFFCURVE",
"382 564 CURVE",
"286 564 OFFCURVE",
"229 511 OFFCURVE",
"208 430 CURVE",
"128 430 LINE",
"207 329 LINE",
"207 418 OFFCURVE",
"277 432 OFFCURVE",
"359 432 CURVE",
"454 432 LINE",
"442 444 LINE",
"443 321 LINE"
);
},
{
closed = 1;
nodes = (
"801 3 LINE",
"924 3 LINE",
"924 321 LINE SMOOTH",
"924 468 OFFCURVE",
"865 564 OFFCURVE",
"740 564 CURVE SMOOTH",
"644 564 OFFCURVE",
"587 511 OFFCURVE",
"566 430 CURVE",
"486 430 LINE",
"566 329 LINE",
"566 418 OFFCURVE",
"635 432 OFFCURVE",
"717 432 CURVE SMOOTH",
"812 432 LINE",
"800 444 LINE",
"801 321 LINE"
);
}
);
userData = {
com.schriftgestaltung.Glyphs.lastChange = "2021-09-01 09:44:06 +0000";
};
width = 1001;
}
);
leftMetricsKey = n;
rightMetricsKey = n;
unicode = 006D;
},
{
color = 9;
glyphname = n;
lastChange = "2021-09-07 11:07:43 +0000";
layers = (
{
anchors = (
{
name = bottom;
position = "{337, 0}";
},
{
name = top;
position = "{360, 556}";
}
);
layerId = "6366B642-BFD9-498E-A5DF-39975F9AC1A1";
paths = (
{
closed = 1;
nodes = (
"83 0 LINE",
"208 0 LINE",
"208 362 LINE",
"192 432 LINE",
"191 556 LINE",
"83 556 LINE"
);
},
{
closed = 1;
nodes = (
"474 0 LINE",
"597 0 LINE",
"597 333 LINE SMOOTH",
"597 482 OFFCURVE",
"541 567 OFFCURVE",
"406 567 CURVE SMOOTH",
"289 567 OFFCURVE",
"231 513 OFFCURVE",
"209 432 CURVE",
"127 432 LINE",
"208 329 LINE",
"208 419 OFFCURVE",
"276 432 OFFCURVE",
"360 432 CURVE SMOOTH",
"473 432 LINE",
"474 321 LINE"
);
}
);
userData = {
com.schriftgestaltung.Glyphs.lastChange = "2021-09-01 09:51:35 +0000";
};
width = 674;
}
);
unicode = 006E;
},
{
color = 9;
glyphname = o;
lastChange = "2021-09-08 19:38:20 +0000";
layers = (
{
anchors = (
{
name = bottom;
position = "{327, -4}";
},
{
name = center;
position = "{327, 278}";
},
{
name = ogonek;
position = "{286, -4}";
},
{
name = top;
position = "{341, 563}";
},
{
name = topright;
position = "{612, 556}";
}
);
background = {
components = (
{
name = p;
transform = "{1, 0, 0, 1, -713, 0}";
}
);
paths = (
{
closed = 1;
nodes = (
"1334 -12 OFFCURVE",
"1403 118 OFFCURVE",
"1403 280 CURVE SMOOTH",
"1403 442 OFFCURVE",
"1334 572 OFFCURVE",
"1128 572 CURVE SMOOTH",
"921 572 OFFCURVE",
"851 442 OFFCURVE",
"851 280 CURVE SMOOTH",
"851 118 OFFCURVE",
"921 -12 OFFCURVE",
"1128 -12 CURVE SMOOTH"
);
},
{
closed = 1;
nodes = (
"984 337 LINE SMOOTH",
"984 408 OFFCURVE",
"1036 439 OFFCURVE",
"1109 439 CURVE SMOOTH",
"1271 439 LINE",
"1271 248 LINE SMOOTH",
"1271 152 OFFCURVE",
"1215 121 OFFCURVE",
"1145 121 CURVE SMOOTH",
"984 121 LINE"
);
},
{
closed = 0;
nodes = (
"603 304 LINE SMOOTH",
"603 452 OFFCURVE",
"513 556 OFFCURVE",
"368 556 CURVE SMOOTH"
);
},
{
closed = 0;
nodes = (
"51 304 LINE SMOOTH",
"51 452 OFFCURVE",
"141 556 OFFCURVE",
"286 556 CURVE"
);
},
{
closed = 0;
nodes = (
"286 -4 LINE",
"141 -4 OFFCURVE",
"51 100 OFFCURVE",
"51 248 CURVE SMOOTH"
);
},
{
closed = 0;
nodes = (
"348 119 LINE SMOOTH",
"422 119 OFFCURVE",
"474 150 OFFCURVE",
"474 221 CURVE SMOOTH"
);
},
{
closed = 0;
nodes = (
"603 248 LINE SMOOTH",
"603 100 OFFCURVE",
"513 -4 OFFCURVE",
"368 -4 CURVE"
);
}
);
};
layerId = "6366B642-BFD9-498E-A5DF-39975F9AC1A1";
paths = (
{
closed = 1;
nodes = (
"180 331 LINE SMOOTH",
"180 402 OFFCURVE",
"232 433 OFFCURVE",
"306 433 CURVE SMOOTH",
"473 433 LINE",
"473 221 LINE SMOOTH",
"473 150 OFFCURVE",
"421 119 OFFCURVE",
"347 119 CURVE SMOOTH",
"180 119 LINE"
);
},
{
closed = 1;
nodes = (
"51 75 OFFCURVE",
"122 -4 OFFCURVE",
"257 -4 CURVE SMOOTH",
"367 -4 LINE",
"512 -4 OFFCURVE",
"603 100 OFFCURVE",
"603 248 CURVE SMOOTH",
"603 328 LINE SMOOTH",
"603 472 OFFCURVE",
"528 556 OFFCURVE",
"377 556 CURVE SMOOTH",
"286 556 LINE",
"141 556 OFFCURVE",
"51 452 OFFCURVE",
"51 304 CURVE SMOOTH",
"51 218 LINE SMOOTH"
);
}
);
userData = {
com.schriftgestaltung.Glyphs.lastChange = "2021-08-31 08:38:01 +0000";
};
width = 654;
}
);
unicode = 006F;
},
{
color = 9;
glyphname = p;
lastChange = "2021-09-07 10:39:27 +0000";
layers = (
{
background = {
components = (
{
name = h;
}
);
};
layerId = "6366B642-BFD9-498E-A5DF-39975F9AC1A1";
paths = (
{
closed = 1;
nodes = (
"82 -211 LINE",
"187 -211 LINE",
"187 99 LINE",
"208 117 LINE",
"208 354 LINE",
"194 435 LINE",
"194 556 LINE",
"82 556 LINE"
);
},
{
closed = 1;
nodes = (
"171 -4 LINE",
"393 -4 LINE SMOOTH",
"532 -4 OFFCURVE",
"622 100 OFFCURVE",
"622 248 CURVE SMOOTH",
"622 380 LINE SMOOTH",
"622 498 OFFCURVE",
"559 559 OFFCURVE",
"439 559 CURVE SMOOTH",
"373 559 LINE SMOOTH",
"273 559 OFFCURVE",
"232 507 OFFCURVE",
"211 435 CURVE",
"194 435 LINE",
"208 354 LINE",
"208 410 OFFCURVE",
"268 436 OFFCURVE",
"324 436 CURVE SMOOTH",
"493 436 LINE",
"493 245 LINE SMOOTH",
"493 150 OFFCURVE",
"438 119 OFFCURVE",
"370 119 CURVE SMOOTH",
"171 119 LINE"
);
}
);
userData = {
com.schriftgestaltung.Glyphs.lastChange = "2021-08-31 08:38:01 +0000";
};
width = 668;
}
);
rightMetricsKey = o;
unicode = 0070;
},
{
color = 9;
glyphname = q;
lastChange = "2021-09-06 19:17:19 +0000";
layers = (
{
background = {
paths = (
{
closed = 1;
nodes = (
"587 556 LINE",
"491 556 LINE",
"491 481 LINE",
"466 476 LINE",
"466 232 LINE",
"473 105 LINE",
"473 -211 LINE",
"587 -211 LINE"
);
},
{
closed = 1;
nodes = (
"140 567 OFFCURVE",
"51 469 OFFCURVE",
"51 278 CURVE SMOOTH",
"51 66 OFFCURVE",
"140 -11 OFFCURVE",
"285 -11 CURVE SMOOTH",
"385 -11 OFFCURVE",
"434 30 OFFCURVE",
"456 105 CURVE",
"473 105 LINE",
"466 231 LINE",
"466 175 OFFCURVE",
"428 123 OFFCURVE",
"347 123 CURVE SMOOTH",
"172 123 LINE",
"172 313 LINE SMOOTH",
"172 405 OFFCURVE",
"206 432 OFFCURVE",
"293 432 CURVE SMOOTH",
"491 432 LINE",
"491 481 LINE",
"474 481 LINE",
"452 522 OFFCURVE",
"409 567 OFFCURVE",
"297 567 CURVE"
);
}
);
};
layerId = "6366B642-BFD9-498E-A5DF-39975F9AC1A1";
paths = (
{
closed = 1;
nodes = (
"456 556 LINE",
"456 172 LINE",
"461 125 LINE",
"461 -211 LINE",
"585 -211 LINE",
"585 556 LINE"
);
},
{
closed = 1;
nodes = (
"179 410 OFFCURVE",
"239 436 OFFCURVE",
"295 436 CURVE",
"456 436 LINE",
"456 349 LINE",
"529 277 LINE",
"529 444 OFFCURVE",
"474 567 OFFCURVE",
"300 567 CURVE",
"127 567 OFFCURVE",
"51 434 OFFCURVE",
"51 297 CURVE",
"51 228 LINE",
"51 86 OFFCURVE",
"128 -11 OFFCURVE",
"256 -11 CURVE",
"266 -11 LINE",
"368 -3 OFFCURVE",
"423 42 OFFCURVE",
"443 110 CURVE",
"525 110 LINE",
"456 221 LINE",
"456 131 OFFCURVE",
"385 118 OFFCURVE",
"299 119 CURVE",
"179 119 LINE",
"179 354 LINE SMOOTH"
);
}
);
userData = {
com.schriftgestaltung.Glyphs.lastChange = "2021-08-31 08:38:01 +0000";
};
width = 662;
}
);
leftMetricsKey = o;
unicode = 0071;
},
{
color = 9;
glyphname = r;
lastChange = "2021-09-08 19:15:59 +0000";
layers = (
{
layerId = "6366B642-BFD9-498E-A5DF-39975F9AC1A1";
paths = (
{
closed = 1;
nodes = (
"83 0 LINE",
"209 0 LINE",
"209 362 LINE",
"192 432 LINE",
"192 556 LINE",
"83 556 LINE"
);
},
{
closed = 1;
nodes = (
"431 556 LINE",
"388 556 LINE SMOOTH",
"289 556 OFFCURVE",
"231 513 OFFCURVE",
"209 432 CURVE",
"128 432 LINE",
"209 330 LINE",
"209 402 OFFCURVE",
"242 432 OFFCURVE",
"317 432 CURVE SMOOTH",
"431 432 LINE"
);
}
);
userData = {
com.schriftgestaltung.Glyphs.lastChange = "2021-08-31 08:38:01 +0000";
};
width = 488;
}
);
unicode = 0072;
},
{
color = 9;
glyphname = v;
lastChange = "2021-09-06 19:17:19 +0000";
layers = (
{
layerId = "6366B642-BFD9-498E-A5DF-39975F9AC1A1";
paths = (
{
closed = 1;
nodes = (
"201 0 LINE",
"373 0 LINE",
"568 556 LINE",
"440 556 LINE",
"306 154 LINE",
"279 154 LINE",
"140 556 LINE",
"9 556 LINE"
);
}
);
userData = {
com.schriftgestaltung.Glyphs.lastChange = "2021-08-31 08:38:01 +0000";
};
width = 580;
}
);
unicode = 0076;
},
{
color = 9;
glyphname = w;
lastChange = "2021-09-06 19:17:19 +0000";
layers = (
{
background = {
components = (
{
name = v;
transform = "{1, 0, 0, 1, -32, 0}";
}
);
paths = (
{
closed = 0;
nodes = (
"436 432 LINE",
"526 0 LINE",
"702 0 LINE",
"842 556 LINE",
"719 556 LINE",
"626 154 LINE",
"600 154 LINE",
"512 556 LINE"
);
}
);
};
layerId = "6366B642-BFD9-498E-A5DF-39975F9AC1A1";
paths = (
{
closed = 1;
nodes = (
"149 0 LINE",
"325 0 LINE",
"415 432 LINE",
"436 432 LINE",
"526 0 LINE",
"696 0 LINE",
"840 556 LINE",
"719 556 LINE",
"628 154 LINE",
"602 154 LINE",
"512 556 LINE",
"339 556 LINE",
"251 154 LINE",
"225 154 LINE",
"132 556 LINE",
"9 556 LINE"
);
}
);
userData = {
com.schriftgestaltung.Glyphs.lastChange = "2021-08-31 08:38:01 +0000";
};
width = 851;
}
);
leftMetricsKey = v;
rightMetricsKey = v;
unicode = 0077;
},
{
export = 0;
glyphname = j;
lastChange = "2021-09-08 20:07:25 +0000";
layers = (
{
layerId = "6366B642-BFD9-498E-A5DF-39975F9AC1A1";
paths = (
{
closed = 1;
nodes = (
"83 652 LINE",
"209 652 LINE",
"209 778 LINE",
"83 778 LINE"
);
},
{
closed = 1;
nodes = (
"83 556 LINE",
"83 -98 LINE",
"-73 -98 LINE",
"-73 -222 LINE",
"5 -222 LINE SMOOTH",
"152 -222 OFFCURVE",
"209 -173 OFFCURVE",
"209 -19 CURVE SMOOTH",
"209 556 LINE"
);
}
);
userData = {
com.schriftgestaltung.Glyphs.lastChange = "2021-09-06 17:18:48 +0000";
};
width = 292;
}
);
rightMetricsKey = i;
unicode = 006A;
},
{
export = 0;
glyphname = t;
lastChange = "2021-09-08 20:23:41 +0000";
layers = (
{
layerId = "6366B642-BFD9-498E-A5DF-39975F9AC1A1";
paths = (
{
closed = 1;
nodes = (
"113 184 LINE SMOOTH",
"113 46 OFFCURVE",
"159 0 OFFCURVE",
"297 0 CURVE SMOOTH",
"355 0 LINE",
"355 124 LINE",
"239 124 LINE",
"239 659 LINE",
"113 659 LINE"
);
},
{
closed = 1;
nodes = (
"22 451 LINE",
"367 451 LINE",
"367 556 LINE",
"22 556 LINE"
);
}
);
userData = {
com.schriftgestaltung.Glyphs.lastChange = "2021-09-06 17:18:48 +0000";
};
width = 388;
}
);
unicode = 0074;
},
{
glyphname = acutecomb;
lastChange = "2021-09-07 10:33:44 +0000";
layers = (
{
anchors = (
{
name = _top;
position = "{-36, 556}";
},
{
name = top;
position = "{20, 873}";
}
);
background = {
paths = (
{
closed = 1;
nodes = (
"-51 611 LINE",
"154 773 LINE",
"58 873 LINE",
"-115 684 LINE"
);
}
);
};
layerId = "6366B642-BFD9-498E-A5DF-39975F9AC1A1";
paths = (
{
closed = 1;
nodes = (
"-146 600 LINE",
"184 683 LINE",
"148 805 LINE",
"-179 715 LINE"
);
}
);
userData = {
com.schriftgestaltung.Glyphs.lastChange = "2021-08-31 08:26:56 +0000";
};
width = 0;
}
);
unicode = 0301;
},
